<?xml version="1.0" encoding="UTF-8" standalone="no"?>
<!-- Copyright 2017 mathsisfun.com -->
<svg xmlns="http://www.w3.org/2000/svg" width="270.2" height="174.5" version="1.1">
<defs>
<marker id="id1" style="overflow:visible;" orient="auto">
<path transform="matrix(-0.8,0,0,-0.8,-10,0)" style="stroke:black; stroke-width:1pt;" d="M 0,0 5,-5 -12.5,0 5,5 0,0 Z"/>
</marker>
</defs>
<g transform="matrix(0.384095,0,0,0.384095,170.694,-377.652)">
<g transform="translate(-525.14,621.602)">
<path style="overflow:visible; fill:none; stroke:#aaccee; stroke-width:2.65;" d="M 133,362.9 H 530.1"/>
<path style="overflow:visible; fill:none; stroke:#aaccee; stroke-width:2.65;" d="M 133,760.3 H 530.1"/>
<path style="overflow:visible; fill:none; stroke:#aaccee; stroke-width:2.65;" d="M 133,412.6 H 530.1"/>
<path style="overflow:visible; fill:none; stroke:#aaccee; stroke-width:2.65;" d="M 133,462.3 H 530.1"/>
<path style="overflow:visible; fill:none; stroke:#aaccee; stroke-width:2.65;" d="M 133,512 H 530.1"/>
<path style="overflow:visible; fill:none; stroke:#aaccee; stroke-width:2.65;" d="M 133,561.6 H 530.1"/>
<path style="overflow:visible; fill:none; stroke:#aaccee; stroke-width:2.65;" d="M 133,611.3 H 530.1"/>
<path style="overflow:visible; fill:none; stroke:#aaccee; stroke-width:2.65;" d="M 133,661 H 530.1"/>
<path style="overflow:visible; fill:none; stroke:#aaccee; stroke-width:2.65;" d="M 133,710.6 H 530.1"/>
</g>
<g transform="rotate(-90,380.102,1135.45)">
<path style="overflow:visible; fill:none; stroke:#aaccee; stroke-width:2.65;" d="M 133,362.9 H 530.1"/>
<path style="overflow:visible; fill:none; stroke:#aaccee; stroke-width:2.65;" d="M 133,760.3 H 530.1"/>
<path style="overflow:visible; fill:none; stroke:#aaccee; stroke-width:2.65;" d="M 133,412.6 H 530.1"/>
<path style="overflow:visible; fill:none; stroke:#aaccee; stroke-width:2.65;" d="M 133,462.3 H 530.1"/>
<path style="overflow:visible; fill:none; stroke:#aaccee; stroke-width:2.65;" d="M 133,512 H 530.1"/>
<path style="overflow:visible; fill:none; stroke:#aaccee; stroke-width:2.65;" d="M 133,561.6 H 530.1"/>
<path style="overflow:visible; fill:none; stroke:#aaccee; stroke-width:2.65;" d="M 133,611.3 H 530.1"/>
<path style="overflow:visible; fill:none; stroke:#aaccee; stroke-width:2.65;" d="M 133,661 H 530.1"/>
<path style="overflow:visible; fill:none; stroke:#aaccee; stroke-width:2.65;" d="M 133,710.6 H 530.1"/>
</g>
</g>
<path style="overflow:visible; fill:#986601; stroke:#fd3301; stroke-width:1.79; stroke-dasharray:7.1, 7.1;" d="m 39,77.3 95.7,0.4"/>
<path style="overflow:visible; fill:#986601; stroke:#0169c9; stroke-width:1.79; stroke-dasharray:5.4, 5.4;" d="m 134.4,20 v 57.9"/>
<path style="overflow:visible; fill:black; stroke:black; stroke-width:1.92;" d="m 39,76.9 95.5,-56.5"/>
<text x="168.5" y="54.4" style="font-family:'Comic Sans MS'; font-size:19.2px; overflow:visible; fill:#0169c9; stroke-width:4.65; stroke-dasharray:14, 14;">Change in Y</text>
<text x="39.2" y="123.4" style="font-family:'Comic Sans MS'; font-size:19.2px; overflow:visible; fill:#fd3301; stroke-width:4.65; stroke-dasharray:14, 14;">Change in X</text>
<g transform="matrix(0.569568,0,0,0.924207,-500.136,-1154.16)">
<path style="overflow:visible; fill:#0169c9; stroke-width:3.5;" d="m 1138.7,1272.8 c 5.3,0.5 12.8,2.1 13.7,8.5 1.1,5.7 -1.4,12.6 3.4,17.1 0.8,2.7 6.8,1.9 5.6,3.9 -0.8,3.6 -3.8,4 -6.4,1.6 -4.7,-3.2 -7.4,-8.9 -6.7,-14.6 0.1,-4 0.6,-9.6 -4.3,-11 -2.1,-2.1 -9.5,0 -6.4,-3.8 0.3,-0.2 1.2,-3.2 1.1,-1.7 z"/>
<path style="overflow:visible; fill:#0169c9; stroke-width:3.5;" d="m 1138.7,1334.8 c 5.3,-0.5 12.8,-2.1 13.7,-8.5 1.1,-5.7 -1.4,-12.6 3.4,-17.1 0.8,-2.7 6.8,-1.9 5.6,-3.9 -0.8,-3.6 -3.8,-4 -6.4,-1.6 -4.7,3.2 -7.4,8.9 -6.7,14.6 0.1,4 0.6,9.6 -4.3,11 -2.1,2.1 -9.5,-0 -6.4,3.8 0.3,0.2 1.2,3.2 1.1,1.7 z"/>
</g>
<g transform="matrix(0.418179,0,0,0.589131,-325.443,-703.914)">
<path style="overflow:visible; fill:#f44800; stroke-width:3.5;" d="m 1099.2,1343.5 c -9.6,12.5 -26.5,11.1 -40.6,10.9 -17.9,-0.9 -37.2,-4.5 -53.9,4.2 -7.9,3.4 -15.5,9.4 -17.2,18.3 -0.8,3.6 6,5.7 5.1,-0.2 2.5,-9.7 13.2,-13.9 21.5,-17.2 19,-6 38.8,-0.4 58.2,-1.4 11.2,-0 23.8,-2.5 30.9,-12.1 -1.2,-0.3 -3.3,-4.4 -4.1,-2.5 z"/>
<path style="overflow:visible; fill:#f44800; stroke-width:3.5;" d="m 880.5,1343.5 c 9.6,12.5 26.5,11.1 40.6,10.9 17.9,-0.9 37.2,-4.5 53.9,4.2 7.9,3.4 15.5,9.4 17.2,18.3 0.8,3.6 -6,5.7 -5.1,-0.2 -2.5,-9.7 -13.2,-13.9 -21.5,-17.2 -19,-6 -38.8,-0.4 -58.2,-1.4 -11.2,-0 -23.8,-2.5 -30.9,-12.1 1.2,-0.3 3.2,-4.4 4.1,-2.5 z"/>
</g>
<path style="marker-end:url(#id1); fill:#2e3436; fill-opacity:0.75; stroke:#2e3436; stroke-width:1.15;" d="m 0.3,153.6 h 170.7"/>
<path style="marker-end:url(#id1); fill:#2e3436; fill-opacity:0.75; stroke:#2e3436; stroke-width:1.15;" d="M 20,172.4 V 2.5"/>
<text x="159.9" y="173.4" transform="scale(0.999982,1.00002)" style="font-family:'Comic Sans MS'; font-weight:bold; font-size:26.5px; font-style:italic; overflow:visible; fill:black; stroke-width:1px;">x</text>
<text x="-1.8" y="18.8" transform="scale(0.999982,1.00002)" style="font-family:'Comic Sans MS'; font-weight:bold; font-size:26.5px; font-style:italic; overflow:visible; fill:black; stroke-width:1px;">y</text>
</svg>
